<svg width="162" height="177" viewBox="0 0 162 177" fill="none" xmlns="http://www.w3.org/2000/svg">
<path d="M99.67 19C90.09 19 81.04 19.67 72.55 21.01C64.05 22.35 56.2 25.35 48.97 30.02C40.32 35.5 33.16 43.36 27.5 53.6C21.83 63.83 19 75.43 19 88.37C19 101.31 21.65 113.5 26.94 123.43C32.23 133.36 39.45 141.25 48.6 147.1C56.07 151.89 64.07 154.91 72.6 156.16C81.13 157.4 90.28 158.03 100.05 158.03H143.19V19H99.68H99.67ZM108.26 111.58C106.25 111.58 104.29 111.17 102.4 110.34C100.5 109.52 98.81 108.14 97.31 106.21C95.85 104.31 94.7 101.95 93.86 99.14C93.02 96.32 92.6 92.78 92.6 88.52C92.6 84.26 93.04 80.82 93.93 77.83C94.82 74.84 95.98 72.45 97.41 70.64C99.03 68.68 100.71 67.32 102.45 66.56C104.19 65.8 106.12 65.42 108.26 65.42V111.59V111.58ZM107.61 132.07C100.39 132.07 94.18 131.94 88.98 131.7C83.78 131.45 78.82 130.02 74.09 127.41C67.55 123.74 62.71 118.65 59.57 112.14C56.43 105.63 54.86 97.81 54.86 88.66C54.86 79.51 56.35 71.76 59.34 65.41C62.33 59.06 66.69 54.08 72.41 50.47C77.27 47.42 82.39 45.75 87.77 45.47C93.15 45.19 99.77 45.05 107.61 45.05H108.26V52.29H108.24C97.75 52.29 89.52 55.53 83.54 62.02C77.56 68.51 74.58 77.34 74.58 88.51C74.58 99.68 77.57 108.39 83.54 114.91C89.52 121.43 97.75 124.69 108.24 124.69H108.26V132.06H107.61V132.07Z" fill="#155DFC"/>
</svg>
