<?xml version="1.0" encoding="UTF-8"?>
<svg id="Capa_2" data-name="Capa 2" xmlns="http://www.w3.org/2000/svg" viewBox="0 0 468.7 153.75">
  <defs>
    <style>
      .cls-1 {
        fill: #155dfc;
      }
    </style>
  </defs>
  <g id="Layer_1" data-name="Layer 1">
    <g>
      <path class="cls-1" d="m80.67,0c-9.58,0-18.63.67-27.12,2.01-8.5,1.34-16.35,4.34-23.58,9.01-8.65,5.48-15.81,13.34-21.47,23.58C2.83,44.83,0,56.43,0,69.37s2.65,25.13,7.94,35.06c5.29,9.93,12.51,17.82,21.66,23.67,7.47,4.79,15.47,7.81,24,9.06,8.53,1.24,17.68,1.87,27.45,1.87h43.14V0h-43.51Zm8.59,92.58c-2.01,0-3.97-.41-5.86-1.24-1.9-.82-3.59-2.2-5.09-4.13-1.46-1.9-2.61-4.26-3.45-7.07-.84-2.82-1.26-6.36-1.26-10.62s.44-7.7,1.33-10.69c.89-2.99,2.05-5.38,3.48-7.19,1.62-1.96,3.3-3.32,5.04-4.08,1.74-.76,3.67-1.14,5.81-1.14v46.17Zm-.65,20.49c-7.22,0-13.43-.13-18.63-.37-5.2-.25-10.16-1.68-14.89-4.29-6.54-3.67-11.38-8.76-14.52-15.27-3.14-6.51-4.71-14.33-4.71-23.48s1.49-16.9,4.48-23.25c2.99-6.35,7.35-11.33,13.07-14.94,4.86-3.05,9.98-4.72,15.36-5,5.38-.28,12-.42,19.84-.42h.65v7.24s-.02,0-.02,0c-10.49,0-18.72,3.24-24.7,9.73-5.98,6.49-8.96,15.32-8.96,26.49s2.99,19.88,8.96,26.4c5.98,6.52,14.21,9.78,24.7,9.78,0,0,.02,0,.02,0v7.37h-.65Z"/>
      <g>
        <path class="cls-1" d="m190.5,30.45c0,8.93-2.39,15.95-7.16,21.07-4.77,5.12-11.32,7.68-19.63,7.68s-14.88-2.59-19.63-7.77c-4.75-5.18-7.12-12.18-7.12-20.98s2.37-15.9,7.12-21.06,11.29-7.74,19.63-7.74,14.85,2.57,19.63,7.7c4.77,5.13,7.16,12.16,7.16,21.09Zm-14.32-.04c0-3.29-.34-6.09-1.02-8.4-.68-2.31-1.59-4.21-2.73-5.7-1.19-1.51-2.53-2.59-4.03-3.25-1.5-.66-3.05-.98-4.66-.98-1.71,0-3.25.3-4.64.91-1.39.61-2.72,1.69-4.01,3.25-1.14,1.43-2.06,3.34-2.76,5.71-.7,2.37-1.06,5.21-1.06,8.5s.33,6.2,1,8.44c.67,2.24,1.58,4.11,2.75,5.62,1.19,1.53,2.54,2.63,4.04,3.28,1.51.66,3.07.98,4.68.98s3.22-.35,4.75-1.06c1.53-.71,2.86-1.8,3.97-3.28,1.19-1.61,2.1-3.48,2.75-5.62.64-2.14.96-4.94.96-8.4Z"/>
        <path class="cls-1" d="m238.81,36.65c0,6.63-1.68,11.99-5.05,16.08-3.36,4.09-7.53,6.14-12.5,6.14-2.08,0-3.88-.24-5.42-.71-1.53-.47-3.17-1.2-4.9-2.19l-.56,2.08h-12.43V.32h12.99v20.41c1.9-1.63,3.85-2.96,5.83-3.97,1.98-1.01,4.27-1.52,6.86-1.52,4.85,0,8.59,1.89,11.22,5.68,2.63,3.78,3.95,9.03,3.95,15.73Zm-13.28.26c0-4.16-.63-7.12-1.89-8.91-1.26-1.78-3.2-2.67-5.83-2.67-1.16,0-2.32.19-3.47.56-1.15.37-2.28.93-3.39,1.67v20.93c.87.35,1.74.58,2.62.71.88.12,1.75.19,2.62.19,3.14,0,5.48-1.04,7.03-3.12,1.55-2.08,2.32-5.19,2.32-9.35Z"/>
        <path class="cls-1" d="m273.95,28.67h-1.08c-.5-.17-1.21-.3-2.15-.39-.94-.09-1.98-.13-3.12-.13-1.36,0-2.79.2-4.29.59-1.5.4-2.95.87-4.36,1.41v27.9h-12.99V16.39h12.99v5.97c.59-.54,1.42-1.23,2.47-2.06,1.05-.83,2.01-1.49,2.88-1.99.94-.57,2.03-1.06,3.28-1.47,1.25-.41,2.43-.61,3.54-.61.42,0,.89.01,1.41.04s.99.06,1.41.11v12.28Z"/>
        <path class="cls-1" d="m301.89,53.64c-.89.74-1.69,1.41-2.39,2-.7.59-1.65,1.19-2.84,1.78-1.16.57-2.29,1-3.39,1.3-1.1.3-2.64.45-4.62.45-3.69,0-6.75-1.24-9.18-3.71-2.44-2.47-3.65-5.59-3.65-9.35,0-3.09.62-5.59,1.85-7.49,1.24-1.91,3.02-3.41,5.34-4.53,2.35-1.14,5.16-1.93,8.42-2.37,3.27-.45,6.78-.79,10.54-1.04v-.22c0-2.3-.85-3.89-2.54-4.77-1.69-.88-4.24-1.32-7.62-1.32-1.53,0-3.33.28-5.38.83-2.05.56-4.06,1.27-6.01,2.13h-1.11v-10.06c1.29-.37,3.36-.81,6.23-1.32,2.87-.51,5.76-.76,8.68-.76,7.17,0,12.4,1.19,15.68,3.58,3.28,2.39,4.92,6.03,4.92,10.93v28.35h-12.91v-4.42Zm0-6.46v-8.68c-2.2.22-3.98.41-5.34.57-1.36.16-2.7.48-4.01.95-1.14.4-2.02,1-2.65,1.8-.63.8-.95,1.87-.95,3.21,0,1.96.53,3.3,1.58,4.03,1.05.73,2.6,1.09,4.66,1.09,1.14,0,2.3-.26,3.49-.78,1.19-.52,2.26-1.25,3.23-2.19Z"/>
        <path class="cls-1" d="m337.1,59.2c-3.07,0-5.97-.33-8.7-1-2.73-.67-4.99-1.45-6.77-2.34v-10.98h1.08c.62.47,1.32.99,2.11,1.56.79.57,1.89,1.16,3.3,1.78,1.21.57,2.58,1.06,4.1,1.47,1.52.41,3.17.61,4.95.61s3.44-.28,4.84-.85c1.4-.57,2.1-1.47,2.1-2.71,0-.96-.32-1.69-.96-2.19-.64-.49-1.89-.96-3.75-1.41-.99-.25-2.24-.51-3.75-.8-1.51-.28-2.84-.61-4.01-.98-3.27-1.01-5.72-2.52-7.36-4.51-1.65-1.99-2.47-4.61-2.47-7.85,0-1.85.43-3.6,1.28-5.25.85-1.64,2.11-3.11,3.77-4.4,1.66-1.26,3.7-2.26,6.14-3,2.44-.74,5.19-1.11,8.26-1.11s5.6.29,8.05.87,4.51,1.28,6.2,2.1v10.54h-1.04c-.45-.35-1.15-.81-2.11-1.39s-1.91-1.08-2.82-1.5c-1.09-.5-2.31-.9-3.65-1.22-1.35-.32-2.73-.48-4.14-.48-1.88,0-3.47.32-4.77.96-1.3.64-1.95,1.5-1.95,2.56,0,.94.32,1.68.96,2.23.64.54,2.04,1.08,4.19,1.6,1.11.27,2.39.54,3.84.8s2.84.61,4.17,1.06c2.99.96,5.26,2.38,6.81,4.25,1.55,1.87,2.32,4.35,2.32,7.44,0,1.96-.46,3.82-1.37,5.58-.92,1.77-2.21,3.26-3.9,4.47-1.78,1.31-3.88,2.33-6.29,3.04s-5.3,1.08-8.66,1.08Z"/>
        <path class="cls-1" d="m189.54,110.49c0,5.15-1.13,9.75-3.38,13.82-2.25,4.07-5.1,7.19-8.53,9.37-2.87,1.85-5.99,3.05-9.37,3.58-3.38.53-6.97.8-10.78.8h-17.29v-55.25h17.14c3.88,0,7.52.25,10.91.74,3.39.5,6.57,1.69,9.54,3.6,3.64,2.33,6.51,5.46,8.61,9.41,2.1,3.95,3.15,8.59,3.15,13.93Zm-14.25-.11c0-3.64-.62-6.75-1.87-9.33-1.25-2.58-3.17-4.61-5.77-6.07-1.88-1.04-3.85-1.61-5.92-1.71-2.07-.1-4.53-.15-7.4-.15h-.26v34.58h.26c3.12,0,5.74-.06,7.88-.17,2.14-.11,4.17-.77,6.1-1.99,2.28-1.43,4.01-3.41,5.19-5.94,1.19-2.52,1.78-5.6,1.78-9.24Z"/>
        <path class="cls-1" d="m210.35,90.45h-13.73v-10.13h13.73v10.13Zm-.37,47.6h-12.99v-41.67h12.99v41.67Z"/>
        <path class="cls-1" d="m257.81,133.27c0,3.86-.56,7.14-1.67,9.83s-2.63,4.8-4.56,6.31c-1.93,1.53-4.24,2.64-6.94,3.32-2.7.68-5.69,1.02-8.98,1.02-2.77,0-5.4-.18-7.88-.54-2.49-.36-4.64-.77-6.47-1.24v-10.43h1.52c.64.25,1.4.52,2.28.82.88.3,1.76.57,2.65.82,1.06.27,2.1.49,3.12.67,1.01.17,2.05.26,3.12.26,2.2,0,4.04-.23,5.51-.69,1.47-.46,2.58-1.11,3.32-1.95.74-.87,1.26-1.89,1.56-3.06.3-1.17.45-2.65.45-4.43v-.78c-1.46,1.29-3.15,2.32-5.06,3.1-1.92.78-3.89,1.17-5.92,1.17-5.39,0-9.55-1.76-12.49-5.27-2.93-3.51-4.4-8.85-4.4-16.03,0-3.26.45-6.2,1.35-8.79.9-2.6,2.16-4.81,3.77-6.64,1.53-1.76,3.39-3.11,5.57-4.06,2.18-.95,4.44-1.43,6.79-1.43,2.13,0,4.03.27,5.71.82,1.68.54,3.22,1.27,4.6,2.19l.48-1.85h12.58v36.88Zm-12.99-8.35v-18.88c-.64-.3-1.43-.54-2.37-.74-.94-.2-1.88-.3-2.82-.3-3.12,0-5.46,1.01-7.03,3.02-1.57,2.02-2.36,4.83-2.36,8.44,0,1.81.12,3.33.35,4.58.23,1.25.67,2.36,1.32,3.32.62.94,1.43,1.65,2.43,2.13s2.28.72,3.84.72c1.16,0,2.31-.2,3.43-.59,1.13-.4,2.19-.96,3.21-1.71Z"/>
        <path class="cls-1" d="m281.11,90.45h-13.73v-10.13h13.73v10.13Zm-.37,47.6h-12.99v-41.67h12.99v41.67Z"/>
        <path class="cls-1" d="m306.63,138.87c-5.29,0-9.15-1.09-11.56-3.27-2.41-2.18-3.62-5.74-3.62-10.69v-19.48h-4.97v-9.05h4.97v-11.91h12.99v11.91h12.5v9.05h-12.5v14.77c0,1.46.01,2.73.04,3.82.02,1.09.22,2.07.59,2.93.35.87.96,1.55,1.84,2.06.88.51,2.16.76,3.84.76.69,0,1.6-.15,2.73-.45,1.13-.3,1.91-.57,2.36-.82h1.11v9.16c-1.41.37-2.91.66-4.49.87-1.58.21-3.52.32-5.83.32Z"/>
        <path class="cls-1" d="m345.22,133.64c-.89.74-1.69,1.41-2.39,2-.7.59-1.65,1.19-2.84,1.78-1.16.57-2.29,1-3.39,1.3-1.1.3-2.64.45-4.62.45-3.69,0-6.75-1.24-9.18-3.71-2.44-2.47-3.65-5.59-3.65-9.35,0-3.09.62-5.59,1.85-7.49,1.24-1.91,3.02-3.41,5.34-4.53,2.35-1.14,5.16-1.93,8.42-2.37,3.27-.45,6.78-.79,10.54-1.04v-.22c0-2.3-.85-3.89-2.54-4.77-1.69-.88-4.24-1.32-7.62-1.32-1.53,0-3.33.28-5.38.83-2.05.56-4.06,1.27-6.01,2.13h-1.11v-10.06c1.29-.37,3.36-.81,6.23-1.32,2.87-.51,5.76-.76,8.68-.76,7.17,0,12.4,1.19,15.68,3.58,3.28,2.39,4.92,6.03,4.92,10.93v28.35h-12.91v-4.42Zm0-6.46v-8.68c-2.2.22-3.98.41-5.34.57-1.36.16-2.7.48-4.01.95-1.14.4-2.02,1-2.65,1.8-.63.8-.95,1.87-.95,3.21,0,1.96.53,3.3,1.58,4.03,1.05.73,2.6,1.09,4.66,1.09,1.14,0,2.3-.26,3.49-.78,1.19-.52,2.26-1.25,3.23-2.19Z"/>
        <path class="cls-1" d="m380.73,138.05h-12.99v-57.73h12.99v57.73Z"/>
        <path class="cls-1" d="m412.01,139.17c-7.87,0-13.9-1.88-18.09-5.64s-6.29-9.11-6.29-16.07,1.95-12.23,5.86-16.29c3.91-4.06,9.37-6.08,16.4-6.08,6.38,0,11.18,1.72,14.4,5.16,3.22,3.44,4.82,8.36,4.82,14.77v4.67h-28.46c.12,1.93.53,3.54,1.22,4.84.69,1.3,1.61,2.33,2.75,3.1,1.11.77,2.41,1.32,3.9,1.65s3.1.5,4.86.5c1.51,0,2.99-.17,4.45-.5,1.46-.33,2.79-.77,4.01-1.32,1.06-.47,2.05-.98,2.95-1.52.9-.54,1.64-1.03,2.21-1.45h1.37v10.72c-1.06.42-2.03.81-2.91,1.17-.88.36-2.08.72-3.62,1.09-1.41.37-2.86.66-4.36.87-1.5.21-3.32.32-5.47.32Zm4.3-27.31c-.07-2.75-.71-4.84-1.91-6.27-1.2-1.43-3.04-2.15-5.51-2.15s-4.5.75-5.92,2.26c-1.42,1.51-2.21,3.56-2.36,6.16h15.69Z"/>
        <path class="cls-1" d="m448.48,139.2c-3.07,0-5.97-.33-8.7-1-2.73-.67-4.99-1.45-6.77-2.34v-10.98h1.08c.62.47,1.32.99,2.11,1.56.79.57,1.89,1.16,3.3,1.78,1.21.57,2.58,1.06,4.1,1.47,1.52.41,3.17.61,4.95.61s3.44-.28,4.84-.85c1.4-.57,2.1-1.47,2.1-2.71,0-.96-.32-1.69-.96-2.19-.64-.49-1.89-.96-3.75-1.41-.99-.25-2.24-.51-3.75-.8-1.51-.28-2.84-.61-4.01-.98-3.27-1.01-5.72-2.52-7.36-4.51-1.65-1.99-2.47-4.61-2.47-7.85,0-1.85.43-3.6,1.28-5.25.85-1.64,2.11-3.11,3.77-4.4,1.66-1.26,3.7-2.26,6.14-3,2.44-.74,5.19-1.11,8.26-1.11s5.6.29,8.05.87,4.51,1.28,6.2,2.1v10.54h-1.04c-.45-.35-1.15-.81-2.11-1.39s-1.91-1.08-2.82-1.5c-1.09-.5-2.31-.9-3.65-1.22-1.35-.32-2.73-.48-4.14-.48-1.88,0-3.47.32-4.77.96-1.3.64-1.95,1.5-1.95,2.56,0,.94.32,1.68.96,2.23.64.54,2.04,1.08,4.19,1.6,1.11.27,2.39.54,3.84.8s2.84.61,4.17,1.06c2.99.96,5.26,2.38,6.81,4.25,1.55,1.87,2.32,4.35,2.32,7.44,0,1.96-.46,3.82-1.37,5.58-.92,1.77-2.21,3.26-3.9,4.47-1.78,1.31-3.88,2.33-6.29,3.04s-5.3,1.08-8.66,1.08Z"/>
      </g>
    </g>
  </g>
</svg>